<?xml version="1.0" standalone="no"?>
<!DOCTYPE svg PUBLIC "-//W3C//DTD SVG 20010904//EN"
 "http://www.w3.org/TR/2001/REC-SVG-20010904/DTD/svg10.dtd">
<svg version="1.0" xmlns="http://www.w3.org/2000/svg"
 width="500.000000pt" height="500.000000pt" viewBox="0 0 500.000000 500.000000"
 preserveAspectRatio="xMidYMid meet">

<g transform="translate(0.000000,500.000000) scale(0.100000,-0.100000)"
fill="#000000" stroke="none">
<path d="M1730 4389 c-59 -26 -877 -839 -921 -914 l-29 -50 0 -735 c0 -697 1
-737 19 -775 12 -25 91 -112 205 -225 l186 -185 0 -269 c0 -308 4 -329 82
-382 l41 -29 1169 -3 c1134 -2 1169 -2 1206 17 47 24 77 56 97 103 12 31 15
85 15 295 l0 258 191 190 c118 117 198 205 210 230 18 38 19 78 19 771 l0 730
-25 50 c-35 70 -860 894 -925 923 -44 20 -62 21 -770 21 -708 0 -726 -1 -770
-21z m1503 -93 c36 -20 842 -821 870 -866 22 -35 22 -36 25 -680 2 -355 0
-679 -3 -720 l-7 -75 -186 -187 c-166 -168 -187 -186 -202 -173 -42 38 -85 45
-276 45 -183 0 -187 0 -170 19 17 18 12 22 -121 98 -76 44 -192 110 -258 147
-164 92 -155 83 -163 164 -7 65 -11 74 -58 128 -59 68 -144 209 -144 239 0 12
-25 43 -64 78 -36 31 -67 57 -69 57 -3 0 -8 -28 -10 -62 -3 -35 -9 -79 -12
-100 -9 -47 38 -239 70 -290 40 -61 257 -218 302 -218 14 0 23 -6 23 -15 0
-12 -15 -15 -77 -15 l-76 0 -71 58 c-39 32 -187 152 -328 266 -142 115 -258
210 -258 213 0 3 24 2 53 -2 43 -6 64 -17 119 -61 37 -30 69 -54 72 -54 10 0
6 50 -5 71 -7 15 -7 24 1 34 9 11 9 23 1 46 -6 17 -13 77 -17 134 l-7 104 -61
22 c-76 28 -110 59 -126 113 -10 37 -9 52 9 111 23 73 27 135 10 135 -6 0
-182 -57 -390 -126 l-379 -125 0 -317 c0 -296 2 -320 21 -362 14 -32 83 -108
242 -267 l222 -223 -218 0 c-167 0 -217 -3 -217 -12 0 -7 -12 -19 -27 -26 -27
-12 -30 -10 -191 150 -90 90 -172 175 -183 190 -19 25 -19 50 -20 743 0 698 1
717 20 748 19 30 629 642 800 802 l81 75 712 0 c600 0 717 -2 741 -14z m-1710
-2794 c20 -20 22 -35 25 -132 l4 -110 -56 0 -56 0 0 84 c0 82 -10 112 -27 82
-4 -8 -7 -60 -5 -115 l3 -101 40 0 c31 0 47 -7 70 -29 27 -28 29 -34 29 -111
0 -77 -2 -83 -29 -111 -27 -27 -35 -29 -101 -29 -62 0 -74 3 -95 25 -19 18
-25 35 -25 70 l0 46 53 -3 c45 -3 52 -6 55 -25 2 -13 10 -23 18 -23 12 0 14
11 12 48 l-3 47 -49 6 c-80 9 -86 23 -86 203 0 145 1 153 23 173 32 29 45 33
115 30 49 -2 67 -8 85 -25z m173 -19 c3 -27 12 -79 19 -118 l13 -70 1 118 1
117 55 0 55 0 0 -301 0 -300 -52 3 -52 3 -17 100 -16 100 -2 -102 -1 -103 -55
0 -55 0 0 300 0 300 49 0 50 0 7 -47z m415 18 l29 -29 0 -240 c0 -132 -3 -248
-6 -257 -11 -27 -60 -45 -124 -45 -55 0 -65 3 -91 29 l-29 29 0 239 c0 203 2
242 16 261 22 31 48 41 117 41 52 1 62 -2 88 -28z m184 -68 c3 -54 10 -125 13
-158 7 -59 8 -56 27 95 l20 155 27 3 c32 4 30 11 55 -178 l17 -135 7 70 c4 39
10 109 14 158 l7 87 55 0 54 0 -6 -42 c-6 -48 -45 -511 -45 -540 0 -15 -8 -18
-60 -18 -50 0 -60 3 -60 18 0 25 -32 233 -36 229 -2 -1 -10 -50 -19 -107 -23
-150 -18 -140 -81 -140 -30 0 -54 4 -54 8 0 17 -40 488 -46 540 l-5 52 54 0
55 0 7 -97z m428 45 c3 -29 9 -99 13 -156 4 -56 8 -101 10 -100 1 2 10 60 19
128 23 184 22 182 53 178 27 -3 27 -3 47 -158 22 -173 26 -168 40 48 l7 112
54 0 c37 0 54 -4 54 -12 0 -7 -11 -139 -25 -293 -14 -154 -25 -283 -25 -287 0
-5 -25 -8 -55 -8 -62 0 -54 -15 -80 145 -9 55 -18 101 -19 102 -2 2 -11 -53
-21 -122 l-18 -125 -57 0 -56 0 -26 293 c-14 160 -23 295 -21 300 2 4 26 7 52
7 l48 0 6 -52z m445 -250 l2 -298 -55 0 -55 0 0 301 0 300 53 -3 52 -3 3 -297z
m160 45 l2 -253 35 0 c35 0 35 0 35 -45 l0 -45 -90 0 -90 0 0 301 0 300 53 -3
52 -3 3 -252z m334 229 c23 -22 23 -28 26 -268 l3 -245 -30 -29 c-29 -29 -32
-30 -125 -30 l-96 0 0 301 0 301 100 -4 c88 -3 102 -6 122 -26z"/>
<path d="M2056 4207 c-27 -20 -19 -109 12 -122 12 -5 22 -16 22 -24 0 -11 -3
-11 -15 -1 -20 16 -38 1 -29 -24 5 -12 16 -16 38 -14 28 3 31 7 34 41 3 32 0
39 -17 44 -17 4 -21 13 -20 42 2 30 3 31 6 9 2 -16 11 -28 19 -28 21 0 19 76
-2 84 -22 8 -28 8 -48 -7z"/>
<path d="M2140 4120 c0 -80 3 -100 14 -100 9 0 16 13 19 33 l4 32 1 -32 c2
-26 6 -33 22 -33 20 0 21 5 18 97 -2 66 -7 98 -16 101 -6 2 -16 -7 -21 -20
l-10 -23 0 23 c-1 13 -7 22 -16 22 -12 0 -15 -18 -15 -100z"/>
<path d="M2252 4212 c-9 -6 -12 -33 -10 -98 l3 -89 29 -3 c39 -5 46 10 46 100
0 66 -3 79 -19 88 -23 12 -32 12 -49 2z m25 -129 c-2 -21 -4 -6 -4 32 0 39 2
55 4 38 2 -18 2 -50 0 -70z"/>
<path d="M2335 4138 c8 -100 12 -118 30 -118 14 0 24 20 26 53 1 14 5 8 11
-15 7 -26 16 -38 28 -38 14 0 18 13 24 77 9 108 8 123 -8 123 -7 0 -18 -18
-23 -42 l-11 -43 -1 37 c-2 67 -29 54 -33 -15 -1 -26 -2 -23 -7 13 -4 33 -11
46 -25 48 -17 4 -18 -2 -11 -80z"/>
<path d="M2480 4120 l0 -100 35 0 c19 0 35 1 36 3 0 1 3 40 5 87 6 92 -3 110
-53 110 -22 0 -23 -2 -23 -100z m37 -2 c-2 -13 -4 -3 -4 22 0 25 2 35 4 23 2
-13 2 -33 0 -45z"/>
<path d="M2592 4212 c-9 -6 -12 -33 -10 -98 l3 -89 35 0 35 0 3 85 c2 71 0 87
-14 97 -20 15 -34 16 -52 5z m25 -129 c-2 -21 -4 -6 -4 32 0 39 2 55 4 38 2
-18 2 -50 0 -70z"/>
<path d="M2686 4168 c-19 -159 -20 -148 2 -148 11 0 23 8 25 18 4 16 5 16 6 0
1 -11 9 -18 22 -18 18 0 20 4 15 38 -3 20 -8 65 -12 100 -5 56 -8 62 -29 62
-20 0 -24 -6 -29 -52z m31 -80 c-3 -7 -5 -2 -5 12 0 14 2 19 5 13 2 -7 2 -19
0 -25z"/>
<path d="M2777 4213 c-4 -3 -7 -48 -7 -100 0 -85 2 -93 19 -93 14 0 21 8 24
28 l4 27 2 -27 c1 -21 6 -28 21 -28 22 0 26 20 10 50 -7 13 -7 21 0 25 16 10
12 92 -6 109 -16 16 -55 22 -67 9z m40 -90 c-2 -16 -4 -5 -4 22 0 28 2 40 4
28 2 -13 2 -35 0 -50z"/>
<path d="M2877 4213 c-4 -3 -7 -48 -7 -100 l0 -93 33 0 c18 0 38 5 45 12 19
19 16 153 -4 172 -16 16 -55 22 -67 9z m40 -130 c-2 -21 -4 -4 -4 37 0 41 2
58 4 38 2 -21 2 -55 0 -75z"/>
<path d="M1715 4089 c-4 -5 1 -20 12 -32 l18 -22 -23 19 c-17 15 -25 17 -34 8
-10 -10 2 -27 52 -77 35 -36 70 -65 77 -65 14 0 17 21 6 36 -5 5 -4 6 2 2 14
-12 35 -9 35 5 0 13 -120 137 -132 137 -4 0 -10 -5 -13 -11z"/>
<path d="M3252 4039 c-68 -56 -85 -87 -41 -76 14 4 18 0 16 -17 -4 -37 19 -23
77 48 54 65 56 69 40 87 -9 11 -18 19 -18 19 -1 0 -34 -27 -74 -61z m28 -23
c0 -2 -8 -10 -17 -17 -16 -13 -17 -12 -4 4 13 16 21 21 21 13z"/>
<path d="M1637 4012 c-27 -30 -21 -46 44 -107 l60 -57 25 23 c13 12 24 27 24
33 0 14 -111 126 -126 126 -6 0 -18 -8 -27 -18z m73 -67 c24 -24 42 -47 39
-50 -3 -2 -27 18 -54 45 -27 28 -45 50 -39 50 5 0 30 -20 54 -45z"/>
<path d="M3315 3970 c-49 -49 -58 -63 -49 -77 16 -26 39 -37 60 -29 18 7 18 8
-3 25 l-22 18 43 42 c49 48 75 56 28 8 -22 -22 -29 -36 -22 -46 6 -11 15 -7
44 20 39 37 45 65 19 85 -28 21 -35 18 -98 -46z"/>
<path d="M1573 3953 c-27 -19 -30 -43 -5 -43 10 0 42 -25 72 -55 42 -43 57
-52 67 -43 12 9 4 22 -42 68 -31 31 -55 63 -53 70 5 19 -14 21 -39 3z"/>
<path d="M3385 3900 c-49 -49 -58 -63 -49 -77 16 -26 39 -37 60 -29 18 7 18 8
-3 25 l-22 18 45 44 c46 45 63 45 19 -1 -18 -18 -22 -29 -14 -40 8 -12 15 -9
44 22 39 42 43 59 19 82 -24 25 -36 20 -99 -44z"/>
<path d="M1965 3928 c-34 -9 -89 -59 -354 -322 -242 -240 -319 -322 -337 -361
-22 -47 -24 -61 -24 -227 0 -110 4 -178 10 -178 11 0 448 153 642 225 l127 47
0 123 c1 68 4 131 8 141 4 10 23 34 42 54 20 19 52 54 71 78 32 39 41 43 115
58 92 18 110 27 145 66 13 15 29 28 35 28 14 0 95 84 95 98 0 29 94 19 146
-14 27 -18 69 -117 58 -136 -5 -7 -7 -21 -6 -30 4 -20 -76 -120 -89 -112 -13
7 -49 -15 -49 -30 0 -7 11 -23 24 -36 14 -12 28 -35 31 -51 4 -16 11 -31 16
-34 5 -4 9 -19 9 -36 0 -23 4 -29 23 -29 30 0 51 -15 42 -30 -5 -9 -1 -10 14
-5 12 4 28 2 36 -5 8 -6 23 -9 34 -5 11 3 34 -1 50 -9 49 -26 83 -20 121 19
25 25 43 35 66 35 30 0 31 -2 40 -57 12 -73 8 -91 -19 -95 -22 -3 -22 -6 -25
-198 -2 -107 2 -309 8 -449 10 -228 9 -274 -4 -260 -12 12 -36 451 -36 654 l0
235 -27 -6 c-15 -4 -38 -13 -52 -20 -13 -7 -28 -11 -33 -8 -4 3 -13 2 -18 -1
-6 -3 -66 -8 -135 -11 -116 -4 -126 -3 -145 16 l-21 21 -37 -30 c-20 -16 -50
-43 -66 -59 -26 -28 -28 -33 -17 -64 22 -64 155 -274 218 -344 35 -41 63 -81
63 -93 0 -12 17 -38 38 -59 31 -30 44 -55 67 -127 15 -49 36 -107 46 -127 11
-21 19 -47 19 -59 0 -13 19 -39 48 -65 27 -24 59 -67 72 -95 19 -40 35 -57 82
-85 72 -44 214 -114 231 -114 7 0 88 75 179 168 113 113 173 182 187 212 20
43 21 63 21 555 0 490 -1 512 -21 555 -14 33 -100 125 -322 348 -166 167 -320
313 -342 325 -40 22 -46 22 -550 24 -326 1 -524 -2 -550 -9z"/>
<path d="M1512 3888 c-18 -18 -16 -24 44 -99 45 -56 59 -67 70 -58 12 9 12 15
2 27 -11 13 -10 15 6 9 10 -4 25 -2 32 4 11 9 -1 23 -60 70 -41 33 -76 59 -78
59 -2 0 -9 -5 -16 -12z m89 -85 c13 -16 12 -17 -3 -4 -10 7 -18 15 -18 17 0 8
8 3 21 -13z"/>
<path d="M3457 3832 l-68 -68 25 -23 c27 -25 56 -21 35 5 -10 12 -9 18 6 32
13 13 19 14 22 4 4 -10 8 -10 19 -1 10 8 11 15 4 24 -15 19 25 52 44 36 26
-22 30 9 4 35 l-23 24 -68 -68z"/>
<path d="M1440 3818 c-11 -12 -20 -24 -20 -28 0 -3 29 -35 65 -70 l65 -64 25
25 c26 26 26 59 0 59 -8 0 -16 9 -20 19 -6 21 -70 81 -85 81 -5 0 -18 -10 -30
-22z m65 -48 c16 -16 24 -30 19 -30 -6 0 -23 14 -39 30 -16 17 -24 30 -19 30
6 0 23 -13 39 -30z"/>
<path d="M3536 3790 c-31 -35 -34 -43 -24 -60 16 -26 2 -39 -16 -14 -12 15
-17 17 -28 6 -14 -14 -4 -38 25 -56 13 -9 23 -5 44 17 23 23 26 30 16 46 -10
16 -8 22 13 42 13 12 24 19 24 14 0 -4 -8 -14 -17 -21 -17 -13 -17 -15 0 -28
13 -10 15 -16 7 -21 -7 -5 -9 -20 -6 -40 7 -36 -8 -58 -17 -25 -6 24 -23 26
-31 4 -8 -20 20 -54 44 -54 35 0 66 59 39 75 -11 8 27 55 44 55 6 0 1 -10 -11
-23 -17 -18 -19 -26 -10 -35 9 -9 17 -7 35 10 13 12 23 29 23 38 0 24 -34 52
-54 44 -12 -5 -15 -2 -10 10 7 18 -21 56 -41 56 -7 0 -29 -18 -49 -40z"/>
<path d="M1341 3719 c-13 -11 -21 -25 -18 -33 4 -9 1 -13 -6 -10 -7 2 -23 -6
-36 -20 l-23 -24 66 -69 65 -68 27 26 c30 30 25 62 -6 34 -20 -19 -35 -6 -35
30 0 14 -6 19 -21 18 -12 -1 -29 6 -38 16 -15 16 -14 19 9 41 l25 24 59 -58
c47 -46 60 -54 69 -43 9 10 0 25 -43 67 -30 30 -55 60 -55 67 0 21 -14 22 -39
2z"/>
<path d="M3647 3642 c-31 -32 -57 -62 -57 -68 0 -14 33 -44 49 -44 17 0 109
88 117 112 6 20 -20 58 -40 58 -7 0 -37 -26 -69 -58z m43 -27 c-24 -25 -49
-45 -54 -45 -6 0 10 20 34 45 24 25 49 45 54 45 6 0 -10 -20 -34 -45z"/>
<path d="M3716 3571 c-54 -55 -65 -70 -53 -79 10 -9 27 3 81 57 54 55 65 70
53 79 -10 9 -27 -3 -81 -57z"/>
<path d="M3750 3535 c-48 -50 -60 -69 -52 -77 9 -9 15 -9 24 0 19 19 33 14 15
-6 -13 -14 -14 -21 -5 -30 9 -9 27 3 75 51 35 34 63 67 63 73 0 10 -41 54 -51
54 -3 0 -34 -29 -69 -65z m55 -15 c-16 -16 -31 -28 -34 -25 -2 3 8 19 24 35
16 16 31 28 34 25 2 -3 -8 -19 -24 -35z"/>
<path d="M1192 3567 c-9 -10 3 -27 57 -81 53 -53 70 -64 78 -54 12 14 1 30
-79 106 -36 35 -47 40 -56 29z"/>
<path d="M1154 3529 c-3 -6 13 -32 37 -57 l44 -47 -47 45 c-38 34 -51 41 -60
32 -10 -10 2 -26 52 -77 35 -36 70 -65 77 -65 17 0 17 22 1 40 -11 12 -10 12
4 1 10 -7 25 -10 34 -7 13 5 2 21 -52 76 -71 73 -78 77 -90 59z"/>
<path d="M3820 3465 l-64 -65 26 -26 c27 -27 60 -26 37 2 -17 20 -3 44 23 41
17 -1 23 3 23 19 0 11 6 28 13 37 11 13 17 14 32 4 30 -18 36 0 10 28 -13 14
-26 25 -30 25 -3 0 -35 -29 -70 -65z"/>
<path d="M1077 3452 c-24 -27 -22 -36 23 -76 35 -31 43 -34 60 -24 26 16 39 2
14 -16 -15 -12 -17 -17 -6 -28 14 -14 38 -4 56 25 16 26 -34 73 -61 58 -17 -8
-24 -6 -43 14 -13 14 -18 25 -12 25 6 0 15 -8 21 -17 8 -14 12 -15 22 -6 10
10 8 18 -11 38 -28 30 -41 31 -63 7z"/>
<path d="M2006 1433 c-3 -3 -6 -98 -6 -210 0 -174 2 -203 15 -203 13 0 15 29
15 204 0 186 -5 228 -24 209z"/>
<path d="M3550 1230 c0 -165 3 -211 13 -207 9 3 12 53 12 207 0 154 -3 204
-12 208 -10 3 -13 -43 -13 -208z"/>
<path d="M3335 770 c-3 -5 -2 -10 4 -10 5 0 13 5 16 10 3 6 2 10 -4 10 -5 0
-13 -4 -16 -10z"/>
<path d="M1200 685 l0 -55 35 0 c19 0 35 5 35 10 0 6 -9 10 -20 10 -17 0 -20
7 -20 45 0 33 -4 45 -15 45 -12 0 -15 -13 -15 -55z"/>
<path d="M1344 727 c-3 -8 -4 -32 -2 -53 3 -37 5 -39 38 -39 l35 0 0 50 c0 49
-1 50 -33 53 -21 2 -34 -2 -38 -11z m56 -42 c0 -28 -4 -35 -20 -35 -16 0 -20
7 -20 35 0 28 4 35 20 35 16 0 20 -7 20 -35z"/>
<path d="M1496 724 c-11 -28 -6 -71 8 -83 17 -14 68 -11 64 4 -2 5 -13 8 -25
7 -20 -3 -23 1 -23 33 0 31 3 36 22 33 11 -2 23 3 25 10 7 19 -63 16 -71 -4z"/>
<path d="M1650 700 c-6 -23 -14 -48 -17 -56 -3 -8 1 -14 10 -14 8 0 17 6 20
13 3 9 9 9 27 -1 31 -18 33 -11 17 44 -18 64 -42 70 -57 14z m27 -22 c-3 -7
-5 -2 -5 12 0 14 2 19 5 13 2 -7 2 -19 0 -25z"/>
<path d="M1770 730 c0 -5 9 -10 21 -10 13 0 20 -6 18 -17 -3 -39 2 -73 11 -73
6 0 10 20 10 45 0 33 4 45 15 45 8 0 15 5 15 10 0 6 -20 10 -45 10 -25 0 -45
-4 -45 -10z"/>
<path d="M1925 685 c0 -53 1 -55 28 -55 15 0 27 5 27 10 0 6 -4 10 -10 10 -5
0 -10 16 -10 35 0 19 5 35 10 35 6 0 10 5 10 10 0 6 -12 10 -27 10 -27 0 -28
-2 -28 -55z"/>
<path d="M2047 734 c-13 -13 -7 -81 7 -93 8 -7 27 -11 43 -9 27 3 28 6 28 53
l0 50 -35 3 c-20 2 -39 0 -43 -4z m61 -46 c-2 -22 -9 -34 -20 -36 -15 -3 -18
4 -18 32 0 30 4 36 21 36 17 0 20 -5 17 -32z"/>
<path d="M2200 685 c0 -41 4 -55 14 -55 9 0 12 7 9 19 -3 10 0 21 5 25 5 3 13
-5 16 -19 4 -16 13 -25 26 -25 18 0 20 7 20 55 0 58 -20 79 -21 23 l0 -33 -16
33 c-10 18 -24 32 -35 32 -15 0 -18 -8 -18 -55z"/>
<path d="M2449 726 c-1 -9 -1 -27 -1 -41 0 -56 0 -56 40 -53 l37 3 0 50 0 50
-37 3 c-29 2 -38 -1 -39 -12z m61 -41 c0 -28 -4 -35 -20 -35 -16 0 -20 7 -20
35 0 28 4 35 20 35 16 0 20 -7 20 -35z"/>
<path d="M2600 685 l0 -55 34 0 c19 0 38 5 41 10 4 6 -5 10 -19 10 -16 0 -26
6 -26 15 0 8 9 15 20 15 11 0 20 5 20 10 0 6 -9 10 -20 10 -11 0 -20 5 -20 10
0 6 9 10 19 10 11 0 23 5 26 10 4 6 -10 10 -34 10 l-41 0 0 -55z"/>
<path d="M2830 685 c0 -58 19 -78 21 -22 l1 32 10 -32 c6 -18 16 -33 23 -33 7
0 17 15 23 33 l10 32 1 -32 c2 -57 21 -36 21 23 0 46 -3 55 -17 52 -9 -2 -22
-19 -28 -38 l-12 -35 -8 38 c-5 27 -12 37 -26 37 -16 0 -19 -8 -19 -55z"/>
<path d="M3018 685 c-13 -46 -13 -55 -2 -55 8 0 14 5 14 10 0 6 9 10 20 10 11
0 20 -4 20 -10 0 -5 6 -10 14 -10 11 0 11 10 -3 55 -21 73 -43 73 -63 0z m42
-6 c0 -5 -4 -9 -10 -9 -5 0 -10 7 -10 16 0 8 5 12 10 9 6 -3 10 -10 10 -16z"/>
<path d="M3150 730 c0 -5 7 -10 15 -10 11 0 15 -12 15 -45 0 -25 5 -45 10 -45
6 0 10 20 10 45 0 33 4 45 15 45 8 0 15 5 15 10 0 6 -18 10 -40 10 -22 0 -40
-4 -40 -10z"/>
<path d="M3300 685 l0 -55 35 0 c19 0 35 5 35 10 0 6 -11 10 -25 10 -16 0 -25
6 -25 15 0 8 9 15 20 15 11 0 20 5 20 10 0 6 -9 10 -20 10 -11 0 -20 5 -20 10
0 6 11 10 25 10 14 0 25 5 25 10 0 6 -16 10 -35 10 l-35 0 0 -55z"/>
<path d="M3440 686 c0 -43 3 -56 15 -56 9 0 15 9 16 23 l0 22 16 -22 c16 -24
51 -33 36 -10 -4 6 -8 30 -8 52 0 39 -1 40 -37 43 l-38 3 0 -55z m52 19 c0 -5
-5 -11 -11 -13 -6 -2 -11 4 -11 13 0 9 5 15 11 13 6 -2 11 -8 11 -13z"/>
<path d="M3595 685 c0 -53 1 -55 28 -55 15 0 27 5 27 10 0 6 -4 10 -10 10 -5
0 -10 16 -10 35 0 19 5 35 10 35 6 0 10 5 10 10 0 6 -12 10 -27 10 -27 0 -28
-2 -28 -55z"/>
<path d="M3710 685 l0 -55 40 0 c22 0 40 5 40 10 0 6 -11 10 -25 10 -16 0 -25
6 -25 15 0 8 9 15 20 15 11 0 20 5 20 10 0 6 -9 10 -20 10 -11 0 -20 5 -20 10
0 6 12 10 26 10 14 0 23 4 19 10 -3 6 -22 10 -41 10 l-34 0 0 -55z"/>
<path d="M3860 685 l0 -55 35 0 c19 0 35 5 35 10 0 6 -11 10 -25 10 -23 0 -25
4 -25 45 0 25 -4 45 -10 45 -5 0 -10 -25 -10 -55z"/>
</g>
</svg>
